<svg width="1090" height="659" viewBox="0 0 1090 659" fill="none" xmlns="http://www.w3.org/2000/svg">
<path d="M1004.8 13.1231C996.341 21.4988 988.463 29.3769 980.585 37.255C988.877 42.3135 996.921 46.8746 1004.55 52.0161C1021.8 63.7917 1035.07 79.2162 1045.27 97.3773C1047.34 101.026 1049.17 104.758 1051.4 108.324C1053.06 110.977 1052.4 112.719 1050.24 114.792C1045.19 119.602 1040.21 124.412 1035.57 129.553C1034.49 130.797 1034.07 133.534 1034.57 135.109C1039.46 149.29 1043.61 163.636 1044.94 178.646C1045.77 188.266 1046.35 197.968 1046.76 207.588C1046.76 209.329 1045.85 211.568 1044.6 212.812C965.824 291.759 886.877 370.54 808.179 449.487C805.027 452.638 802.374 451.063 799.637 450.482C776.915 445.755 756.349 436.302 738.188 421.706C737.856 421.458 737.607 420.96 737.11 420.297C743.081 414.575 749.051 408.853 754.69 403.379C747.476 394.755 740.759 387.209 734.622 379.248C726.329 368.384 719.778 356.443 715.466 343.423C712.066 333.057 709.163 322.525 706.427 311.993C705.929 310.252 707.007 307.349 708.417 305.94C715.217 298.725 722.515 291.925 729.315 284.71C730.642 283.301 731.554 280.896 731.471 278.988C730.724 265.139 728.651 251.291 728.983 237.442C729.563 211.817 733.295 186.607 740.925 161.978C745.983 145.724 752.037 129.885 759.998 114.875C768.125 99.5335 777.578 85.0212 788.939 71.8357C803.535 54.9185 819.871 40.2404 838.945 28.5476C857.686 17.1036 877.838 9.22552 899.316 4.66452C914.657 1.43035 930.082 -0.476982 945.672 0.103509C965.824 0.849856 985.56 4.33281 1004.8 12.8743V13.1231ZM913.579 101.607C913.579 101.607 912.916 100.86 912.584 100.446C908.687 101.855 904.706 103.016 901.057 104.841C878.833 115.87 865.564 134.778 855.696 156.587C853.042 162.392 850.637 168.031 845.745 172.51C838.862 178.729 832.476 185.529 825.925 192.163C824.681 193.407 823.52 195.149 823.188 196.807C820.286 209.578 817.549 222.349 814.979 235.203C811.993 250.213 812.325 265.471 814.149 280.481C816.471 298.642 821.945 315.725 836.125 329.408C829.906 335.462 823.935 341.267 816.886 348.15C825.345 350.969 832.891 354.784 840.769 355.779C861.667 358.35 879.496 350.803 894.589 336.54C906.448 325.262 914.657 311.496 921.043 296.486C930.165 275.091 935.306 252.783 936.219 229.481C936.467 223.344 937.214 217.539 942.853 213.476C946.087 211.071 948.409 207.339 951.643 204.934C957.365 200.705 958.941 195.149 957.945 188.515C957.697 186.856 957.199 185.197 957.033 183.539C956.038 171.514 952.97 160.07 946.916 149.622C937.214 132.87 923.116 122.919 902.965 123.251C899.399 123.251 895.833 123.251 890.94 123.251C899.15 115.456 906.365 108.49 913.662 101.607H913.579Z" fill="white"/>
<path d="M108.269 172.936C111.42 170.117 114.323 167.463 117.557 164.56C105.615 143.248 93.8396 122.35 81.8151 100.955C89.2786 93.6574 96.5762 86.2769 104.123 79.1452C105.615 77.7354 108.269 77.1549 110.508 76.9061C121.371 75.8281 132.235 75.0817 143.098 73.9207C156.367 72.511 169.635 70.7695 182.904 69.3597C187.133 68.9451 191.445 68.1987 193.27 74.1695C194.348 77.7354 197.001 80.8866 199.572 85.3647C197.831 86.6915 196.172 88.0184 194.348 89.2623C189.952 92.2477 190.284 95.4818 192.689 99.7941C198.162 109.662 203.055 119.863 208.279 129.897C217.153 147.063 226.109 164.229 235.148 181.56C246.094 166.219 256.958 151.043 267.821 135.867C284.738 112.067 301.49 88.1842 318.822 64.6329C320.48 62.3109 325.622 62.145 329.188 61.7304C341.875 60.2377 354.563 59.1597 367.168 57.7499C368.495 57.584 369.905 56.506 370.983 55.4279C377.202 49.3742 383.339 43.2376 389.393 37.018C391.964 34.3644 394.7 33.3692 398.432 33.0375C409.378 32.2083 420.325 30.7156 431.271 29.5546C438.403 28.8082 445.535 28.1448 452.666 27.4814C457.476 27.0668 462.286 26.6521 468.423 26.1546C464.359 31.6278 461.042 36.1058 457.725 40.5839C443.627 59.4084 429.447 78.233 415.349 96.9745C414.437 98.2185 413.193 99.2965 412.115 100.375C356.802 155.687 301.407 210.917 246.094 266.312C181.743 330.83 117.474 395.43 53.1222 459.948C51.2978 461.772 48.6442 463.679 46.2393 464.011C34.5465 465.504 22.8537 466.499 10 467.826C15.8049 460.196 20.8635 453.396 25.9221 446.679C42.8392 424.206 59.6735 401.65 76.6736 379.176C91.0201 360.186 105.615 341.279 120.045 322.288C130.908 307.942 141.606 293.595 152.303 279.166C154.874 275.683 157.611 272.366 160.181 268.8C160.762 268.054 161.177 266.478 160.762 265.815C153.464 252.546 146.084 239.361 138.62 226.175C132.152 214.731 125.684 203.37 119.215 191.926C115.732 185.707 112.249 179.57 108.435 172.77L108.269 172.936Z" fill="white"/>
<path d="M553.926 245.735C546.38 253.364 538.751 260.993 530.955 268.788C536.014 237.193 540.99 205.681 546.131 173.588C524.985 180.968 504.17 188.266 483.438 195.481C481.199 189.593 482.609 185.861 486.838 181.715C525.648 143.319 564.292 104.841 602.605 65.9481C607.663 60.8066 613.054 59.4797 619.439 58.8163C631.049 57.6553 642.576 56.3285 654.186 55.1675C659.576 54.587 665.049 54.3382 671.186 53.9236C666.625 82.5335 662.147 110.563 657.669 138.592C658 138.758 658.249 138.924 658.581 139.09C665.961 131.627 673.259 124.246 680.639 116.783C680.971 116.948 681.386 117.114 681.717 117.28C680.971 123.168 680.308 129.139 679.395 134.944C677.654 145.641 675.747 156.256 674.005 166.954C671.766 180.056 669.527 193.159 667.454 206.261C665.713 217.125 664.303 227.988 662.561 238.852C660.571 251.54 658.332 264.145 656.259 276.832C654.517 287.862 652.859 298.808 651.2 309.837C649.542 320.369 647.883 330.901 646.224 341.433C644.815 350.306 643.488 359.179 641.664 367.887C641.083 370.872 639.839 374.272 637.766 376.345C620.102 394.34 602.024 412.004 584.444 430.082C580.38 434.229 576.234 436.882 570.595 437.297C563.131 437.877 555.668 438.541 548.287 439.204C540.492 439.951 532.697 440.863 524.57 441.775C534.936 376.594 545.302 311.662 555.668 246.73C555.17 246.398 554.673 245.983 554.175 245.652L553.926 245.735Z" fill="white"/>
<path d="M382.574 146.789C381.579 148.198 380.584 149.608 379.588 151.018C366.486 168.516 353.466 185.93 340.364 203.345C324.276 224.74 308.188 246.136 292.1 267.531C287.871 273.087 283.559 278.56 279.495 284.199C278.832 285.194 278.749 287.35 279.412 288.429C284.388 297.716 289.612 306.838 294.671 315.878C304.954 305.595 315.154 295.312 326.266 284.282C343.515 314.717 359.935 343.741 376.603 373.18C375.857 374.01 374.944 375.088 373.949 376.083C349.735 400.298 325.52 424.512 301.305 448.644C296.163 453.786 294.422 453.537 291.188 447.069C279.246 423.434 267.222 399.8 255.197 376.166C253.622 373.18 251.797 370.278 249.973 367.293C239.773 377.576 229.49 387.859 218.626 398.722C213.651 388.854 209.256 380.063 204.695 371.024C195.407 384.21 186.202 397.146 176.997 410.166C160.577 433.22 144.158 456.191 127.738 479.245C123.426 485.298 118.948 491.186 115.133 497.571C112.148 502.464 107.338 501.967 103.026 502.547C88.3475 504.372 73.6693 505.864 58.9912 507.274C48.1277 508.352 37.2642 509.181 26.4007 510.176C23.747 510.425 21.0934 510.923 18.4397 511.254C18.1909 510.84 17.9421 510.425 17.6933 510.011C139.762 389.351 261.749 268.775 383.818 148.115C383.403 147.618 382.988 147.12 382.574 146.623V146.789Z" fill="white"/>
<path d="M838.101 436.312C918.789 355.623 999.146 275.35 1080 194.496C1080 197.232 1080.08 199.803 1080 202.374C1078.51 236.125 1072.62 269.047 1059.93 300.477C1050.81 323.033 1038.7 344.014 1023.36 363.087C1008.35 381.746 990.77 397.419 970.536 409.941C951.131 421.965 929.985 429.926 907.594 434.736C889.184 438.717 870.609 438.468 852.033 438.302C847.472 438.302 842.828 437.058 838.101 436.395V436.312Z" fill="white"/>
<path d="M502.494 150.042C499.177 124.085 495.777 97.8803 492.294 70.9289C498.513 68.524 504.899 66.0362 511.367 63.5483C539.977 52.6019 568.67 41.8214 597.28 30.792C610.465 25.7335 620.334 23.3286 628.709 23.909C586.997 65.6215 544.87 107.666 502.577 149.959L502.494 150.042Z" fill="white"/>
<path d="M353.915 416.492C365.442 436.892 378.046 459.034 390.983 481.922C370.998 483.829 351.759 485.571 332.519 487.561C313.28 489.551 294.041 491.79 276.543 493.697C301.753 468.57 327.875 442.448 353.915 416.409V416.492Z" fill="white"/>
<path d="M615.295 408.87C612.558 426.202 609.49 445.358 606.422 464.68C588.261 466.588 570.265 468.412 554.177 470.071C574.08 450.168 595.061 429.27 615.378 408.953L615.295 408.87Z" fill="white"/>
<path d="M62.7263 103.271C59.4092 97.3003 55.6775 90.5831 51.7799 83.6172C63.8044 82.3733 75.1654 81.2123 85.7801 80.1343C78.3996 87.5148 70.6044 95.2271 62.6434 103.188L62.7263 103.271Z" fill="white"/>
<path d="M10 628.762H20.58C21.9759 626.468 23.2984 623.5 24.5475 619.857C25.87 616.214 26.8986 611.526 27.6333 605.792C28.4415 600.058 28.8456 592.873 28.8456 584.238V564H110.069V633.821H10V628.762ZM115.028 649V633.821H103.456V628.762H121.09V649H115.028ZM103.456 569.06H34.907V584.238C34.907 592.873 34.5396 600.058 33.8049 605.792C33.1437 611.526 32.262 616.214 31.1599 619.857C30.0579 623.5 28.8823 626.468 27.6333 628.762H103.456V569.06ZM10 649V628.762H16.0614V649H10Z" fill="white"/>
<path d="M155.991 564H217.487C225.349 564 231.3 565.45 235.341 568.351C239.382 571.252 241.402 575.536 241.402 581.202C241.402 584.643 240.631 587.645 239.088 590.208C237.619 592.772 235.378 594.762 232.365 596.179C229.426 597.595 225.79 598.304 221.455 598.304V596.988C225.936 596.988 229.904 597.595 233.357 598.81C236.81 599.956 239.492 601.812 241.402 604.375C243.386 606.871 244.378 610.143 244.378 614.19C244.378 620.329 242.358 625.153 238.317 628.661C234.349 632.101 228.581 633.821 221.014 633.821H155.991V564ZM234.79 582.214V580.19C234.79 576.548 233.541 573.782 231.043 571.893C228.618 570.004 224.394 569.06 218.369 569.06H162.604V595.673H218.369C224.394 595.673 228.618 594.492 231.043 592.131C233.541 589.702 234.79 586.397 234.79 582.214ZM237.766 615.202V613.077C237.766 609.3 236.259 606.298 233.247 604.071C230.235 601.845 225.716 600.732 219.691 600.732H162.604V628.762H219.691C225.716 628.762 230.235 627.649 233.247 625.423C236.259 623.129 237.766 619.722 237.766 615.202Z" fill="white"/>
<path d="M364.493 572.941L289.441 633.821H281.947V564H288.559V623.675L364.493 564H371.987V633.821H365.374L364.493 572.941Z" fill="white"/>
<path d="M467.488 597.899L417.894 564H427.923L477.517 597.899H467.488ZM469.141 596.685L477.517 597.899L426.821 633.821H416.792L469.141 596.685ZM490.522 564H497.134V633.821H490.522V564ZM468.7 600.631V595.571H519.176V600.631H468.7ZM560.063 564H569.43L519.837 597.899H510.469L560.063 564ZM510.469 597.899L519.065 596.685L571.414 633.821H561.165L510.469 597.899Z" fill="white"/>
<path d="M618.421 564H699.755V569.06H625.034V595.673H683.003V600.732H625.034V628.762H700.196V633.821H618.421V564Z" fill="white"/>
<path d="M735.121 564H741.734V594.155H817.447V564H824.059V633.821H817.447V599.214H741.734V633.821H735.121V564Z" fill="white"/>
<path d="M947.27 573.721L873.63 633.821H866.135V564H872.748V623.675L948.681 564H956.175V633.821H949.563L947.27 573.721Z" fill="white"/>
<path d="M998.226 564H1079.56V569.06H1004.84V595.673H1062.81V600.732H1004.84V628.762H1080V633.821H998.226V564Z" fill="white"/>
<path d="M10 628.762H20.58C21.9759 626.468 23.2984 623.5 24.5475 619.857C25.87 616.214 26.8986 611.526 27.6333 605.792C28.4415 600.058 28.8456 592.873 28.8456 584.238V564H110.069V633.821H10V628.762ZM10 628.762V649H16.0614V628.762H10ZM103.456 628.762V633.821H115.028V649H121.09V628.762H103.456ZM103.456 628.762H27.6333C28.8823 626.468 30.0579 623.5 31.1599 619.857C32.262 616.214 33.1437 611.526 33.8049 605.792C34.5396 600.058 34.907 592.873 34.907 584.238V569.06H103.456V628.762ZM477.517 597.899L427.923 564H417.894L467.488 597.899H477.517ZM477.517 597.899L469.141 596.685L416.792 633.821H426.821L477.517 597.899ZM510.469 597.899H519.837L569.43 564H560.063L510.469 597.899ZM510.469 597.899L519.065 596.685L571.414 633.821H561.165L510.469 597.899ZM155.991 564H217.487C225.349 564 231.3 565.45 235.341 568.351C239.382 571.252 241.402 575.536 241.402 581.202C241.402 584.643 240.631 587.645 239.088 590.208C237.619 592.772 235.378 594.762 232.365 596.179C229.426 597.595 225.79 598.304 221.455 598.304V596.988C225.937 596.988 229.904 597.595 233.357 598.81C236.81 599.956 239.492 601.812 241.402 604.375C243.386 606.871 244.378 610.143 244.378 614.19C244.378 620.329 242.358 625.153 238.317 628.661C234.349 632.101 228.582 633.821 221.014 633.821H155.991V564ZM234.79 582.214V580.19C234.79 576.548 233.541 573.782 231.043 571.893C228.618 570.004 224.394 569.06 218.369 569.06H162.604V595.673H218.369C224.394 595.673 228.618 594.492 231.043 592.131C233.541 589.702 234.79 586.397 234.79 582.214ZM237.766 615.202V613.077C237.766 609.3 236.259 606.298 233.247 604.071C230.235 601.845 225.716 600.732 219.691 600.732H162.604V628.762H219.691C225.716 628.762 230.235 627.649 233.247 625.423C236.259 623.129 237.766 619.722 237.766 615.202ZM364.493 572.941L289.441 633.821H281.947V564H288.559V623.675L364.493 564H371.987V633.821H365.374L364.493 572.941ZM490.522 564H497.134V633.821H490.522V564ZM468.7 600.631V595.571H519.176V600.631H468.7ZM618.421 564H699.755V569.06H625.034V595.673H683.003V600.732H625.034V628.762H700.196V633.821H618.421V564ZM735.121 564H741.734V594.155H817.447V564H824.059V633.821H817.447V599.214H741.734V633.821H735.121V564ZM947.27 573.721L873.63 633.821H866.135V564H872.748V623.675L948.681 564H956.175V633.821H949.563L947.27 573.721ZM998.226 564H1079.56V569.06H1004.84V595.673H1062.81V600.732H1004.84V628.762H1080V633.821H998.226V564Z" stroke="white" stroke-width="19"/>
</svg>
